<?xml version="1.0" ?><svg id="object" viewBox="0 0 32 32" xmlns="http://www.w3.org/2000/svg"><defs><style>.cls-1{fill:#ffd599;}.cls-2{fill:#e4ab7b;}.cls-3{fill:#ff9797;}.cls-4{fill:#e47979;}.cls-5{fill:#f4dab7;}.cls-6{fill:#ecc5b4;}.cls-7{fill:#d6b5b0;}.cls-8{fill:#bf9e99;}</style></defs><title/><path class="cls-1" d="M24.5,5H7.5a5,5,0,0,0-5,5V20a1,1,0,0,0,1,1h25a1,1,0,0,0,1-1V10A5,5,0,0,0,24.5,5Z"/><rect class="cls-2" height="5" rx="1" ry="1" width="10" x="5.33" y="10"/><rect class="cls-2" height="5" rx="1" ry="1" width="10" x="17.33" y="10"/><path class="cls-2" d="M24.5,5H7.5A5,5,0,0,0,3.69,6.8a5,5,0,0,1,3-1h17a5,5,0,0,1,5,5v10a1.3,1.3,0,0,1,0,.21,1,1,0,0,0,.82-1V10A5,5,0,0,0,24.5,5Z"/><rect class="cls-3" height="5" rx="1" ry="1" width="10" x="5" y="10"/><path class="cls-4" d="M14,10H6a1,1,0,0,0-.8.44.73.73,0,0,1,.3-.06h8a1,1,0,0,1,1,1v3a.93.93,0,0,1-.2.56A1,1,0,0,0,15,14V11A1,1,0,0,0,14,10Z"/><rect class="cls-3" height="5" rx="1" ry="1" width="10" x="17" y="10"/><path class="cls-4" d="M26,10H18a1,1,0,0,0-.8.44.73.73,0,0,1,.3-.06h8a1,1,0,0,1,1,1v3a.93.93,0,0,1-.2.56A1,1,0,0,0,27,14V11A1,1,0,0,0,26,10Z"/><rect class="cls-1" height="5" rx="1" ry="1" width="6" x="3" y="22"/><rect class="cls-1" height="5" rx="1" ry="1" width="6" x="23" y="22"/><path class="cls-5" d="M26.46,13H5.54a3,3,0,0,0-3,3v4a1,1,0,0,0,1,1h25a1,1,0,0,0,1-1V16A3,3,0,0,0,26.46,13Z"/><path class="cls-6" d="M26.46,13H5.54a3,3,0,0,0-2.21,1,3,3,0,0,1,1.34-.32H25.58a3,3,0,0,1,3.05,3v4a1,1,0,0,1-.07.34,1,1,0,0,0,.94-1V16A3,3,0,0,0,26.46,13Z"/><path class="cls-2" d="M9,23v2H3V23a1,1,0,0,1,1-1H8A1,1,0,0,1,9,23Z"/><path class="cls-2" d="M29,23v2H23V23a1,1,0,0,1,1-1h4A1,1,0,0,1,29,23Z"/><rect class="cls-7" height="5" rx="1" ry="1" width="30" x="1" y="19"/><path class="cls-8" d="M30.16,19s0,0,0,.08v3a1,1,0,0,1-1,1h-28a.8.8,0,0,1-.15,0A1,1,0,0,0,2,24H30a1,1,0,0,0,1-1V20A1,1,0,0,0,30.16,19Z"/></svg>