<?xml version="1.0" encoding="iso-8859-1"?>
<!-- Generator: Adobe Illustrator 21.1.0, SVG Export Plug-In . SVG Version: 6.00 Build 0)  -->
<svg version="1.1" id="Layer_1" xmlns="http://www.w3.org/2000/svg" xmlns:xlink="http://www.w3.org/1999/xlink" x="0px" y="0px"
	 viewBox="0 0 24 24" enable-background="new 0 0 24 24" xml:space="preserve">
<g>
	<path fill="#303C42" d="M22,14.2373047V14c0-4.0222778-2.3553467-7.5739136-6.0268555-9.1596069l0.0249023-0.2988892
		c0.0117188-0.1391602-0.0351563-0.2773438-0.1298828-0.3798828C15.7734375,4.0585938,15.6396484,4,15.5,4h-1.7781982
		C13.3747559,3.4050903,12.7367554,3,12,3s-1.3747559,0.4050903-1.7218018,1H8.5
		C8.3603516,4,8.2265625,4.0585938,8.1318359,4.1616211C8.0371094,4.2641602,7.9902344,4.4023438,8.0019531,4.5415039
		L8.0268555,4.840271C4.3557739,6.4257813,2,9.9771118,2,14v0.2373047C0.6613159,14.7176514,0,15.2949829,0,16
		c0,1.8837891,5.6083984,5,12,5s12-3.1162109,12-5C24,15.2949829,23.3386841,14.7176514,22,14.2373047z"/>
	<path fill="#FFD54F" d="M3,14c0-3.5019531,1.9959717-6.59021,5.1166992-8.081665l0.3852539,4.6231689
		C8.5234375,10.8027344,8.7421875,11,8.9990234,11c0.0146484,0,0.0283203-0.0004883,0.0429688-0.0019531
		c0.2744141-0.0229492,0.4794922-0.2641602,0.4560547-0.5395508L9.0429688,5H10v8.5c0,0.2763672,0.2236328,0.5,0.5,0.5
		s0.5-0.2236328,0.5-0.5V5c0-0.5512695,0.4482422-1,1-1s1,0.4487305,1,1v8.5c0,0.2763672,0.2236328,0.5,0.5,0.5
		s0.5-0.2236328,0.5-0.5V5h0.9570313l-0.4550781,5.4584961c-0.0234375,0.2753906,0.1816406,0.5166016,0.4560547,0.5395508
		C14.9726563,10.9995117,14.9863281,11,15.0009766,11c0.2568359,0,0.4755859-0.1972656,0.4970703-0.4584961l0.3852539-4.6231689
		C19.0043945,7.4095459,21,10.4981689,21,14v1.2138672C20.2109375,15.6445313,17.3046875,17,12,17
		c-5.2773438,0-8.2041016-1.3574219-9-1.7875977V14z"/>
	<path opacity="0.1" fill="#010101" d="M17.2957153,6.7776489C18.3711548,8.2620239,19,10.0615234,19,12
		c0,0.7694092-0.4619141,1.472168-1.1801147,1.7481079C16.3796997,14.3015747,13.8077393,15,10,15
		c-3.1719971,0-5.4786987-0.4907227-7-0.9754028v1.1878052C3.7958984,15.6425781,6.7226563,17,12,17
		c5.3046875,0,8.2109375-1.3554688,9-1.7861328V14C21,11.0656128,19.5863037,8.4349976,17.2957153,6.7776489z"/>
	<path fill="#FFD54F" d="M12,20c-6.3115234,0-11-3.0629883-11-4c0-0.0853882,0.2095947-0.3626099,1-0.6924438V15.5
		c0,0.1669922,0.0839844,0.3232422,0.2226563,0.4160156C2.3505859,16.0009766,5.4238281,18,12,18
		s9.6494141-1.9990234,9.7773438-2.0839844C21.9160156,15.8232422,22,15.6669922,22,15.5v-0.1925049
		C22.7904663,15.6373291,23,15.9146118,23,16C23,16.9370117,18.3115234,20,12,20z"/>
	<linearGradient id="SVGID_1_" gradientUnits="userSpaceOnUse" x1="7.4502211" y1="10.7583361" x2="17.9685822" y2="21.2766972">
		<stop  offset="0" style="stop-color:#010101;stop-opacity:0.1"/>
		<stop  offset="1" style="stop-color:#010101;stop-opacity:0"/>
	</linearGradient>
	<path fill="url(#SVGID_1_)" d="M23,16c0-0.0853882-0.2095337-0.3626709-1-0.6925049V15.5
		c0,0.1669922-0.0839844,0.3232422-0.2226563,0.4160156C21.6494141,16.0009766,18.5761719,18,12,18
		c-6.2773438,0-9.355957-1.8173218-9.7346802-2.0567627l2.7855835,2.7855835C6.9147339,19.440918,9.307251,20,12,20
		C18.3115234,20,23,16.9370117,23,16z"/>
	<linearGradient id="SVGID_2_" gradientUnits="userSpaceOnUse" x1="3.3075514" y1="8.6658287" x2="23.2093716" y2="17.9461994">
		<stop  offset="0" style="stop-color:#FFFFFF;stop-opacity:0.2"/>
		<stop  offset="1" style="stop-color:#FFFFFF;stop-opacity:0"/>
	</linearGradient>
	<path fill="url(#SVGID_2_)" d="M22,14.2373047V14c0-4.0222778-2.3553467-7.5739136-6.0268555-9.1596069l0.0249023-0.2988892
		c0.0117188-0.1391602-0.0351563-0.2773438-0.1298828-0.3798828C15.7734375,4.0585938,15.6396484,4,15.5,4h-1.7781982
		C13.3747559,3.4050903,12.7367554,3,12,3s-1.3747559,0.4050903-1.7218018,1H8.5
		C8.3603516,4,8.2265625,4.0585938,8.1318359,4.1616211C8.0371094,4.2641602,7.9902344,4.4023438,8.0019531,4.5415039
		L8.0268555,4.840271C4.3557739,6.4257813,2,9.9771118,2,14v0.2373047C0.6613159,14.7176514,0,15.2949829,0,16
		c0,1.8837891,5.6083984,5,12,5s12-3.1162109,12-5C24,15.2949829,23.3386841,14.7176514,22,14.2373047z"/>
</g>
<g>
</g>
<g>
</g>
<g>
</g>
<g>
</g>
<g>
</g>
<g>
</g>
<g>
</g>
<g>
</g>
<g>
</g>
<g>
</g>
<g>
</g>
<g>
</g>
<g>
</g>
<g>
</g>
<g>
</g>
</svg>
