<svg width="100" height="100" fill="none" xmlns="http://www.w3.org/2000/svg"><path d="M63.794 25.989a4.888 4.888 0 004.883-4.883 4.889 4.889 0 00-4.883-4.883 4.889 4.889 0 00-4.883 4.883c0 1.1.365 2.115.981 2.932L51.87 35.25a4.864 4.864 0 00-4.844 1.067l-5.348-3.034a4.888 4.888 0 00-4.773-5.91 4.888 4.888 0 00-4.773 5.91l-5.348 3.034a4.863 4.863 0 00-3.323-1.31 4.889 4.889 0 00-4.883 4.883 4.889 4.889 0 004.883 4.883 4.889 4.889 0 004.773-5.91l5.347-3.034a4.864 4.864 0 003.324 1.31 4.865 4.865 0 003.324-1.31l5.347 3.034a4.889 4.889 0 004.773 5.91 4.889 4.889 0 004.883-4.883c0-1.1-.365-2.115-.981-2.933l8.022-11.21c.479.156.99.243 1.52.243zm0-6.837c1.077 0 1.953.877 1.953 1.954a1.955 1.955 0 01-1.953 1.953 1.955 1.955 0 01-1.953-1.953c0-1.077.876-1.954 1.953-1.954zM23.46 41.843a1.955 1.955 0 01-1.953-1.953c0-1.078.876-1.954 1.953-1.954s1.953.877 1.953 1.954a1.955 1.955 0 01-1.953 1.953zm13.445-7.634a1.955 1.955 0 01-1.953-1.953c0-1.077.876-1.953 1.953-1.953s1.953.876 1.953 1.953a1.955 1.955 0 01-1.953 1.953zm13.444 7.634a1.955 1.955 0 01-1.953-1.953c0-1.078.876-1.954 1.953-1.954s1.954.877 1.954 1.954a1.956 1.956 0 01-1.954 1.953z" fill="#FEBF01"/><path d="M81.796 73.626H4.144c-.67 0-1.214-.544-1.214-1.214V11.98c0-.67.544-1.214 1.214-1.214h6.905a1.465 1.465 0 100-2.93H4.144A4.148 4.148 0 000 11.98v60.433a4.148 4.148 0 004.144 4.144h10.1v3.224a3.334 3.334 0 003.33 3.33h14.663l-6.902 13.476a1.465 1.465 0 102.607 1.336L35.53 83.11h16.196l7.586 14.812a1.465 1.465 0 102.608-1.336L55.016 83.11H69.68a3.334 3.334 0 003.33-3.33v-3.224h8.787a1.465 1.465 0 100-2.93zM70.08 79.779c0 .222-.18.401-.4.401H17.573a.401.401 0 01-.4-.4v-3.224H70.08v3.224zM16.908 10.765H83.11c.67 0 1.214.544 1.214 1.214v13.928a1.465 1.465 0 102.93 0V11.979a4.148 4.148 0 00-4.144-4.144H51.757v-2.88a3.68 3.68 0 00-3.675-3.674h-8.91a3.68 3.68 0 00-3.675 3.675v2.88H16.908a1.465 1.465 0 100 2.929zm21.518-5.81c0-.41.335-.744.746-.744h8.91c.41 0 .745.334.745.745v2.88h-10.4v-2.88z" fill="#fff"/><path d="M20.488 52.26c-.808 0-1.464.657-1.464 1.466V66.67c0 .809.655 1.464 1.464 1.464h5.943c.81 0 1.465-.655 1.465-1.465V53.727c0-.81-.656-1.465-1.465-1.465h-5.943zm4.478 12.945h-3.013V55.19h3.013v10.014zM33.933 44.775c-.809 0-1.465.656-1.465 1.465v20.43c0 .809.656 1.465 1.465 1.465h5.943c.809 0 1.465-.656 1.465-1.465V46.24c0-.81-.656-1.465-1.465-1.465h-5.943zm4.478 20.43h-3.013v-17.5h3.013v17.5zM47.377 52.26c-.809 0-1.464.657-1.464 1.466V66.67c0 .809.656 1.464 1.464 1.464h5.943c.81 0 1.465-.655 1.465-1.465V53.727c0-.81-.656-1.465-1.465-1.465h-5.943zm4.478 12.945h-3.013V55.19h3.013v10.014zM60.822 60.905c-.809 0-1.465.655-1.465 1.465v4.3c0 .809.656 1.465 1.465 1.465h5.943a1.465 1.465 0 100-2.93h-4.478V62.37c0-.81-.656-1.465-1.465-1.465zM99.253 75.004l-8.404-14.556a19.05 19.05 0 004.508-8.133 19.02 19.02 0 00-1.913-14.528C88.165 28.644 76.433 25.5 67.29 30.779c-9.142 5.278-12.286 17.01-7.008 26.154a19.022 19.022 0 0011.626 8.92c1.65.442 3.323.66 4.986.66 1.454 0 2.899-.166 4.312-.497l8.402 14.556a5.57 5.57 0 007.607 2.038A5.587 5.587 0 00100 77.785c0-.972-.258-1.934-.747-2.781zm-26.587-11.98a16.111 16.111 0 01-9.847-7.556c-4.47-7.744-1.808-17.681 5.936-22.152a16.116 16.116 0 018.08-2.17c5.61 0 11.072 2.91 14.072 8.106a16.11 16.11 0 011.62 12.305 16.11 16.11 0 01-7.556 9.846 16.11 16.11 0 01-12.305 1.62zM95.75 80.072a2.642 2.642 0 01-3.604-.965l-8.084-14.005c.81-.33 1.603-.717 2.374-1.162a19.406 19.406 0 002.194-1.478l8.086 14.005c.232.403.354.858.354 1.317 0 .941-.506 1.818-1.32 2.288z" fill="#fff"/><path d="M90.145 51.486a13.862 13.862 0 00-.694-10.042 1.465 1.465 0 10-2.65 1.249 10.939 10.939 0 01.546 7.925 10.944 10.944 0 01-4.995 6.249 10.906 10.906 0 01-8.33 1.097 10.906 10.906 0 01-6.666-5.115c-3.027-5.243-1.224-11.97 4.018-14.997a10.963 10.963 0 0112.12.754 1.465 1.465 0 101.767-2.337 13.887 13.887 0 00-15.352-.954 13.817 13.817 0 00-6.48 8.445 13.817 13.817 0 001.39 10.553 13.818 13.818 0 008.444 6.48 13.826 13.826 0 0010.553-1.39 13.863 13.863 0 006.329-7.917z" fill="#fff"/></svg>