<svg width="100" height="100" fill="none" xmlns="http://www.w3.org/2000/svg"><path d="M39.063 15.625h9.374v12.5H21.875a1.563 1.563 0 00-1.563 1.563v6.25h3.125V31.25h25v4.688h3.126V31.25h25v4.688h3.124v-6.25a1.563 1.563 0 00-1.562-1.563H51.562v-12.5h9.376a6.25 6.25 0 000-12.5H39.061a6.25 6.25 0 000 12.5zm0-9.375h21.874a3.125 3.125 0 110 6.25H39.064a3.125 3.125 0 110-6.25z" fill="#fff"/><path d="M25 39.063h-6.25a6.25 6.25 0 000 12.5H25a6.25 6.25 0 000-12.5zm0 9.374h-6.25a3.125 3.125 0 110-6.25H25a3.125 3.125 0 110 6.25z" fill="#FEBF01"/><path d="M53.125 39.063h-6.25a6.25 6.25 0 000 12.5h6.25a6.25 6.25 0 000-12.5zm0 9.374h-6.25a3.125 3.125 0 110-6.25h6.25a3.125 3.125 0 110 6.25z" fill="#fff"/><path d="M81.25 39.063H75a6.25 6.25 0 000 12.5h6.25a6.25 6.25 0 000-12.5zm0 9.374H75a3.125 3.125 0 110-6.25h6.25a3.125 3.125 0 110 6.25z" fill="#FEBF01"/><path d="M10.938 96.875h78.124a6.25 6.25 0 006.25-6.25V14.062a6.25 6.25 0 00-6.25-6.25h-18.75v3.125h18.75a3.125 3.125 0 013.126 3.126v6.25h-37.5v3.125h37.5v67.187a3.125 3.125 0 01-3.126 3.125H10.939a3.125 3.125 0 01-3.126-3.125V23.437h37.5v-3.125h-37.5v-6.25a3.125 3.125 0 013.125-3.124h18.75V7.812h-18.75a6.25 6.25 0 00-6.25 6.25v76.563a6.25 6.25 0 006.25 6.25z" fill="#fff"/><path d="M12.5 54.688h3.125v3.124H12.5v-3.124zM18.75 54.688h12.5v3.124h-12.5v-3.124zM40.625 54.688h3.125v3.124h-3.125v-3.124zM46.875 54.688h12.5v3.124h-12.5v-3.124zM68.75 54.688h3.125v3.124H68.75v-3.124zM75 54.688h12.5v3.124H75v-3.124zM76.563 73.438h3.124v-6.25a1.563 1.563 0 00-1.562-1.563H23.437v-4.688h-3.125v12.5h3.125V68.75h25v4.688h3.126V68.75h25v4.688zM18.75 89.063H25a6.25 6.25 0 000-12.5h-6.25a6.25 6.25 0 000 12.5zm0-9.376H25a3.125 3.125 0 110 6.25h-6.25a3.125 3.125 0 110-6.25z" fill="#fff"/><path d="M46.875 76.563a6.25 6.25 0 000 12.5h6.25a6.25 6.25 0 000-12.5h-6.25zm9.375 6.25a3.125 3.125 0 01-3.125 3.124h-6.25a3.125 3.125 0 110-6.25h6.25a3.125 3.125 0 013.125 3.126z" fill="#FEBF01"/><path d="M75 89.063h6.25a6.25 6.25 0 000-12.5H75a6.25 6.25 0 000 12.5zm0-9.376h6.25a3.125 3.125 0 110 6.25H75a3.125 3.125 0 110-6.25zM10.938 14.063h3.124v3.124h-3.124v-3.125zM17.188 14.063h3.125v3.124h-3.125v-3.125zM23.438 14.063h3.125v3.124h-3.125v-3.125z" fill="#fff"/></svg>