<svg width="100" height="100" fill="none" xmlns="http://www.w3.org/2000/svg"><g clip-path="url(#clip0)"><path d="M97.897 74.113h-2.219v-53.42a6.05 6.05 0 00-6.043-6.045H9.975a6.05 6.05 0 00-6.044 6.044v47.702a1.465 1.465 0 002.93 0V31.383h85.887v42.73H81.904a1.464 1.464 0 100 2.93h14.971v2.974a2.775 2.775 0 01-2.772 2.773H5.507a2.775 2.775 0 01-2.773-2.773v-2.974h37.423a4.669 4.669 0 004.422 3.194H55.03a4.668 4.668 0 004.423-3.194H74.67a1.465 1.465 0 100-2.93H58.224c-.809 0-1.465.655-1.465 1.465 0 .953-.776 1.73-1.729 1.73H44.58c-.954 0-1.73-.777-1.73-1.73 0-.81-.656-1.465-1.465-1.465H1.713A1.91 1.91 0 00-.195 76.02v3.997a5.709 5.709 0 005.702 5.702h88.596a5.709 5.709 0 005.702-5.702V76.02a1.91 1.91 0 00-1.908-1.907zm-5.149-53.42v1.197H47.645a2.159 2.159 0 01-2.156-2.156 5.06 5.06 0 00-.48-2.156h44.626a3.117 3.117 0 013.113 3.114zM9.975 17.577h12.413a5.06 5.06 0 00-.48 2.156 2.159 2.159 0 01-2.157 2.156H6.861v-1.198a3.117 3.117 0 013.114-3.114zM6.86 28.453V24.82h12.89a5.091 5.091 0 005.086-5.086c0-1.189.966-2.156 2.155-2.156h13.411c1.189 0 2.156.968 2.156 2.156a5.091 5.091 0 005.085 5.086h45.104v3.633H6.861z" fill="#fff"/><path d="M86.257 69.924a2.204 2.204 0 002.201-2.2V37.291a2.204 2.204 0 00-2.201-2.2h-32.14a2.203 2.203 0 00-2.202 2.2v30.43c0 1.214.987 2.202 2.201 2.202h32.14zM54.845 38.021h30.684v28.974H54.845V38.02z" fill="#FEBF01"/><path d="M66.996 51.427c-.1-.314-.33-.556-.687-.725a2.85 2.85 0 00-1.233-.254c-.465 0-.876.084-1.233.254-.358.17-.587.411-.688.725l-3.5 11.484c-.026.101-.039.17-.039.207 0 .327.204.61.612.848a2.48 2.48 0 001.271.357c.54 0 .86-.181.96-.546l.64-2.353h3.972l.64 2.353c.1.365.42.546.96.546.44 0 .863-.118 1.27-.357.409-.238.613-.521.613-.848a1.03 1.03 0 00-.038-.207l-3.52-11.484zm-3.295 7.737l1.375-5.046 1.374 5.046H63.7zM79.627 51.633c-.84-.715-1.964-1.073-3.37-1.073h-3.331c-.377 0-.685.088-.923.264-.238.175-.358.383-.358.621v11.993c0 .24.12.446.358.621.238.177.546.264.923.264h3.331c1.406 0 2.53-.357 3.37-1.073.841-.716 1.261-1.839 1.261-3.37v-4.877c0-1.53-.42-2.654-1.26-3.37zm-1.675 8.247c0 1.255-.565 1.883-1.695 1.883h-1.675v-8.642h1.675c1.13 0 1.695.628 1.695 1.883v4.876z" fill="#FEBF01"/><path d="M13.57 39.507h31.19a1.465 1.465 0 000-2.93H13.57a1.465 1.465 0 100 2.93zM13.57 47.095h31.19a1.465 1.465 0 000-2.93H13.57a1.465 1.465 0 100 2.93zM13.57 54.682h31.19a1.465 1.465 0 100-2.93H13.57a1.465 1.465 0 000 2.93zM13.57 62.27h31.19a1.465 1.465 0 000-2.93H13.57a1.465 1.465 0 000 2.93zM13.57 69.859h20.228a1.465 1.465 0 100-2.93H13.571a1.465 1.465 0 100 2.93z" fill="#fff"/><path d="M82.439 40.619a1.465 1.465 0 00-2.072 0l-.679.678-.678-.678a1.464 1.464 0 10-2.071 2.071l.678.68-.678.678a1.464 1.464 0 102.071 2.07l.678-.677.679.678a1.46 1.46 0 002.072 0c.571-.572.571-1.5 0-2.072l-.68-.678.68-.679c.572-.571.571-1.499 0-2.071z" fill="#FEBF01"/></g><defs><clipPath id="clip0"><path fill="#fff" d="M0 0h100v100H0z"/></clipPath></defs></svg>