<svg width="100" height="100" fill="none" xmlns="http://www.w3.org/2000/svg"><path d="M98.438 45.313h-3.126v-4.688c0-7.178-4.426-13.336-10.692-15.903 3.594-2.199 6.005-6.149 6.005-10.66 0-6.892-5.608-12.5-12.5-12.5s-12.5 5.608-12.5 12.5c0 4.422 2.314 8.305 5.787 10.529a20.14 20.14 0 00-6.782 4.004 23.36 23.36 0 00-7.732-4.117c3.372-2.242 5.602-6.072 5.602-10.416 0-6.892-5.608-12.5-12.5-12.5s-12.5 5.608-12.5 12.5c0 4.344 2.23 8.174 5.602 10.415a23.4 23.4 0 00-7.733 4.118 20.118 20.118 0 00-6.782-4.004c3.474-2.224 5.788-6.107 5.788-10.529 0-6.892-5.608-12.5-12.5-12.5s-12.5 5.608-12.5 12.5c0 4.511 2.41 8.461 6.005 10.66-6.266 2.567-10.693 8.725-10.693 15.903v4.688H1.563v50h22.033a7.807 7.807 0 00-.157 1.562v1.563h53.124v-1.563c0-.534-.054-1.058-.157-1.563h22.032v-50zm-6.25-4.688v4.688H87.5V37.5h-3.125v7.813H73.358a23.334 23.334 0 00-6.425-14.597 16.99 16.99 0 017.551-3.761L73.372 38.08l4.753 4.753 4.753-4.753-1.101-11.02c5.986 1.614 10.41 7.075 10.41 13.564zm-25 48.438h-3.126v-29.84c0-5.256-2.395-9.962-6.148-13.089.602-1.223.97-2.506 1.102-3.81 5.098 3.464 8.172 9.187 8.172 15.489v31.25zm-25-18.104V68.75h4.687c4.308 0 7.813-3.505 7.813-7.813v-3.124h-3.126v3.124a4.693 4.693 0 01-4.687 4.688h-7.813v.006a6.523 6.523 0 00-3.814 1.292l-3.621 2.716a3.39 3.39 0 01-2.02.674 3.346 3.346 0 01-3.009-1.86l-1.342-2.686 10.45-14.63a13.94 13.94 0 0111.32-5.825c7.67 0 13.911 6.241 13.911 13.911v29.84H32.814V83.57c0-2.086.812-4.048 2.287-5.525l7.087-7.086zm13.135-26.601a16.922 16.922 0 00-4.593-1.753l4.03-5.642a8.04 8.04 0 01.563 7.395zm-8.142-2.163c-.051 0-.103-.008-.154-.008-.927 0-1.84.104-2.741.25l.006-.026a4.262 4.262 0 014.145-3.349c.318 0 .633.029.95.044l-2.206 3.09zm18.444 2.068V37.5H62.5v3.556a22.15 22.15 0 00-3.75-2.523 11.22 11.22 0 00-2.958-5.261l-1.303-1.305-3.005 4.205a22.046 22.046 0 00-3.047-.234c-3.446 0-6.476 2.445-7.2 5.817l-.342 1.589a17.07 17.07 0 00-3.395 1.76V37.5h-3.125v7.813h-4.608c.622-8.113 6.02-14.89 13.39-17.538L50 33.252l6.845-5.477c7.368 2.648 12.766 9.427 13.39 17.538h-3.826a22.372 22.372 0 00-.784-1.05zM50 26.563c1.036 0 2.047.103 3.042.253L50 29.248l-3.042-2.432A20.35 20.35 0 0150 26.563zm28.125 0c.156 0 .308.018.463.023l1.034 10.333-1.497 1.497-1.497-1.497 1.034-10.333c.155-.005.307-.023.463-.023zm-9.375-12.5c0-5.17 4.205-9.376 9.375-9.376S87.5 8.893 87.5 14.063s-4.205 9.376-9.375 9.376-9.375-4.205-9.375-9.375zm-28.125 0c0-5.17 4.205-9.376 9.375-9.376s9.375 4.205 9.375 9.375S55.17 23.438 50 23.438s-9.375-4.205-9.375-9.375zM23.372 36.919l-1.497 1.497-1.497-1.497 1.035-10.333c.154-.005.306-.023.462-.023.156 0 .308.018.462.023l1.035 10.333zM12.5 14.063c0-5.17 4.205-9.376 9.375-9.376s9.375 4.205 9.375 9.375-4.205 9.376-9.375 9.376-9.375-4.205-9.375-9.375zM7.812 40.624c0-6.49 4.426-11.95 10.411-13.564l-1.101 11.02 4.753 4.753 4.753-4.753-1.112-11.126a16.968 16.968 0 017.55 3.76 23.334 23.334 0 00-6.425 14.598H15.625V37.5H12.5v7.813H7.812v-4.688zM4.688 92.188v-43.75h29.191c-.24.293-.494.573-.715.884L21.62 65.482l2.183 4.368a6.456 6.456 0 005.805 3.588c1.394 0 2.776-.461 3.894-1.299l3.621-2.716a3.381 3.381 0 011.94-.665v.91l-6.172 6.17a10.872 10.872 0 00-3.203 7.734v5.65c-1.896.386-3.52 1.478-4.647 2.967H4.687v-.001zm22.143 3.124a4.696 4.696 0 014.42-3.124h37.5a4.696 4.696 0 014.42 3.124H26.83zm68.483-3.124H74.959c-1.126-1.49-2.753-2.582-4.647-2.968V57.813a21.92 21.92 0 00-2.096-9.376h27.097v43.75z" fill="#fff"/><path d="M7.813 51.563h3.125v3.124H7.812v-3.124zM7.813 57.813h3.125v3.124H7.812v-3.124zM7.813 64.063h3.125v3.124H7.812v-3.124zM89.063 51.563h3.124v3.124h-3.124v-3.124zM89.063 57.813h3.124v3.124h-3.124v-3.124zM89.063 64.063h3.124v3.124h-3.124v-3.124z" fill="#fff"/><path d="M42.188 51.563A4.693 4.693 0 0037.5 56.25a4.693 4.693 0 004.688 4.688 4.693 4.693 0 004.687-4.688 4.693 4.693 0 00-4.688-4.688zm0 6.25c-.861 0-1.563-.7-1.563-1.563 0-.862.702-1.563 1.563-1.563.86 0 1.562.7 1.562 1.563 0 .862-.702 1.563-1.563 1.563zM54.688 82.813h3.124v3.124h-3.124v-3.124zM54.688 76.563h3.124v3.124h-3.124v-3.124zM54.688 70.313h3.124v3.124h-3.124v-3.124z" fill="#FEBF01"/></svg>