<svg width="100" height="100" fill="none" xmlns="http://www.w3.org/2000/svg"><g clip-path="url(#clip0)"><path d="M98.333 75.013H95v-55a8.344 8.344 0 00-8.333-8.333H13.333A8.344 8.344 0 005 20.013v55H1.667C.746 75.013 0 75.76 0 76.68v5a6.667 6.667 0 006.667 6.667h86.666A6.667 6.667 0 00100 81.68v-5c0-.92-.746-1.667-1.667-1.667zm-90-55a5 5 0 015-5h73.334a5 5 0 015 5v55h-3.334V23.347a5 5 0 00-5-5H16.667a5 5 0 00-5 5v51.666H8.333v-55zM85 23.347v51.666H60.197A4.655 4.655 0 0056 77.602a1.334 1.334 0 01-1.205.745h-9.598a1.334 1.334 0 01-1.205-.745 4.656 4.656 0 00-4.189-2.589H15V23.347c0-.921.746-1.667 1.667-1.667h66.666c.921 0 1.667.746 1.667 1.667zM96.667 81.68a3.333 3.333 0 01-3.334 3.333H6.667a3.333 3.333 0 01-3.334-3.333v-3.333h36.47c.512-.004.98.286 1.205.745a4.656 4.656 0 004.189 2.588h9.606A4.655 4.655 0 0059 79.092a1.334 1.334 0 011.197-.745h36.47v3.333z" fill="#fff"/><path d="M44.248 50.357c.014 0 .024.018.036.025l.091.036c.38.178.767.334 1.167.478.064.024.13.049.195.07.375.129.758.237 1.148.334.089.022.175.047.264.068.367.08.741.14 1.121.188.102.014.201.038.304.047.95.107 1.909.107 2.86 0 .102-.009.201-.033.303-.047.38-.048.753-.108 1.122-.188.088-.02.166-.046.263-.068.39-.094.773-.203 1.149-.333.065-.022.13-.047.195-.07.396-.142.782-.301 1.166-.479l.09-.036c.013 0 .023-.019.037-.025a13.335 13.335 0 00-5.75-25.364 13.334 13.334 0 00-5.75 25.364h-.01zm9.086-2.594l-.022.008c-.51.18-1.033.318-1.567.412-.051.01-.103.017-.155.026a9.903 9.903 0 01-3.18 0c-.051-.009-.103-.016-.155-.026a9.964 9.964 0 01-1.566-.412l-.022-.008v-2.75a3.333 3.333 0 116.667 0v2.75zm-5-11.083a1.666 1.666 0 113.332-.001 1.666 1.666 0 01-3.332.001zM50 28.347a9.985 9.985 0 016.667 17.433v-.767a6.639 6.639 0 00-2.698-5.325A4.953 4.953 0 0055 36.68a5 5 0 00-10 0 4.947 4.947 0 001.032 3 6.637 6.637 0 00-2.698 5.333v.767A9.987 9.987 0 0150 28.347zM76.667 55.013H23.333c-.92 0-1.666.746-1.666 1.667v13.333c0 .921.746 1.667 1.666 1.667h53.334c.92 0 1.666-.746 1.666-1.667V56.68c0-.92-.745-1.667-1.666-1.667zM75 68.347H25v-10h50v10z" fill="#fff"/><path d="M28.333 61.68h3.334v3.333h-3.334V61.68zM35 61.68h3.333v3.333H35V61.68zM41.667 61.68H45v3.333h-3.333V61.68zM48.333 61.68h3.334v3.333h-3.334V61.68z" fill="#FEBF01"/><path d="M18.333 25.013h10v3.334h-10v-3.334zM31.667 25.013H35v3.334h-3.333v-3.334z" fill="#fff"/></g><defs><clipPath id="clip0"><path fill="#fff" d="M0 0h100v100H0z"/></clipPath></defs></svg>