<svg width="100" height="100" fill="none" xmlns="http://www.w3.org/2000/svg"><path d="M93.424 13.361H6.576A6.584 6.584 0 000 19.937v60.126a6.584 6.584 0 006.576 6.576h86.848A6.584 6.584 0 00100 80.063V19.937a6.584 6.584 0 00-6.576-6.576zM23.382 83.507H6.576a3.449 3.449 0 01-3.445-3.445V19.938c0-1.9 1.546-3.444 3.445-3.444h16.806v67.014zm73.487-3.444c0 1.9-1.546 3.444-3.445 3.444h-66.91V16.493h66.91c1.9 0 3.445 1.545 3.445 3.445v60.125z" fill="#fff"/><path d="M38.31 20.042h-6.681a1.566 1.566 0 100 3.131h6.68a1.566 1.566 0 000-3.131zM18.267 20.042H8.247a1.566 1.566 0 100 3.131h10.02a1.566 1.566 0 000-3.131zM18.267 36.743H8.247a1.566 1.566 0 100 3.132h10.02a1.566 1.566 0 000-3.132zM18.267 50.104H8.247a1.566 1.566 0 000 3.132h10.02a1.566 1.566 0 100-3.132zM18.267 63.466H8.247a1.566 1.566 0 000 3.131h10.02a1.566 1.566 0 000-3.131zM18.267 43.424H8.247a1.566 1.566 0 000 3.131h10.02a1.566 1.566 0 100-3.131zM18.267 56.785H8.247a1.566 1.566 0 100 3.132h10.02a1.566 1.566 0 000-3.132zM14.927 73.487h-6.68a1.566 1.566 0 100 3.131h6.68a1.566 1.566 0 000-3.131zM14.927 26.722h-6.68a1.566 1.566 0 100 3.132h6.68a1.566 1.566 0 000-3.132zM51.67 20.042h-6.68a1.566 1.566 0 000 3.131h6.68a1.566 1.566 0 000-3.131zM65.031 20.042h-6.68a1.566 1.566 0 100 3.131h6.68a1.566 1.566 0 000-3.131zM78.393 20.042h-6.68a1.566 1.566 0 100 3.131h6.68a1.566 1.566 0 000-3.131zM91.754 20.042h-6.681a1.566 1.566 0 000 3.131h6.68a1.566 1.566 0 000-3.131z" fill="#fff"/><path d="M49.27 55.43a1.566 1.566 0 00-2.191.31 6.736 6.736 0 01-5.43 2.715 6.793 6.793 0 01-6.785-6.785 6.793 6.793 0 016.785-6.785c2.156 0 4.136.991 5.432 2.718a1.566 1.566 0 102.505-1.879 9.84 9.84 0 00-7.937-3.97c-5.468 0-9.916 4.449-9.916 9.916 0 5.468 4.448 9.917 9.916 9.917a9.84 9.84 0 007.933-3.966c.52-.691.38-1.673-.311-2.192zM64.717 54.765c2.978-.627 5.22-3.274 5.22-6.435a6.584 6.584 0 00-6.576-6.576h-8.35c-.865 0-1.566.7-1.566 1.565v16.702a1.566 1.566 0 003.132 0v-5.115h4.331l4.541 6.054a1.564 1.564 0 002.192.313c.692-.518.832-1.5.313-2.192l-3.237-4.316zm-8.14-2.99v-6.89h6.784c1.9 0 3.445 1.546 3.445 3.445 0 1.9-1.545 3.445-3.445 3.445h-6.785zM91.642 59.865l-1.67-16.701a1.566 1.566 0 00-3.012-.426l-5.227 13.067-5.227-13.067a1.567 1.567 0 00-3.012.426l-1.67 16.701a1.566 1.566 0 003.116.312l1.034-10.338 4.305 10.763a1.566 1.566 0 002.908 0l4.305-10.763 1.034 10.338a1.566 1.566 0 003.116-.312z" fill="#FEBF01"/></svg>