<svg width="100" height="100" fill="none" xmlns="http://www.w3.org/2000/svg"><path d="M77.444 87.474a11.246 11.246 0 00-8.796-7.864l-10.583-1.923v-.837a16.232 16.232 0 004.808-4.27h3.256a4.845 4.845 0 004.839-4.838V43.747c0-4.502-2.949-8.428-7.224-9.705l-.807-.806a19.734 19.734 0 00-14.045-5.817c-10.952 0-19.86 8.91-19.86 19.86v12.398c0 3.11 2.212 5.712 5.144 6.318.905 4.636 3.801 8.558 7.76 10.855v.837l-10.584 1.924a11.244 11.244 0 00-8.796 7.865L18.8 100h62.4l-3.756-12.526zm-9.702-19.732c0 .889-.723 1.613-1.613 1.613h-1.356c.467-1.066.822-2.19 1.051-3.36a6.392 6.392 0 001.918-.763v2.51zm-1.613-5.287V56.9a3.215 3.215 0 011.613 2.777 3.215 3.215 0 01-1.613 2.778zm-32.258-.002a3.21 3.21 0 01-1.613-2.776c0-1.188.653-2.217 1.613-2.777v5.553zm0-10.84v1.842a6.395 6.395 0 00-1.613.668v-6.844c0-9.173 7.463-16.634 16.634-16.634 4.445 0 8.623 1.73 11.763 4.873l1.422 1.422.436.108a6.895 6.895 0 015.229 6.699v10.376a6.337 6.337 0 00-1.613-.668v-1.842h-5.116c-4.371 0-8.547-2.087-11.17-5.582l-1.28-1.713-3.207 3.206a13.87 13.87 0 01-9.872 4.089H33.87zm3.226 11.29v-8.139a17.053 17.053 0 0010.54-4.96l.628-.628c3.237 3.57 7.895 5.661 12.748 5.661h1.89v8.065c0 2.351-.642 4.551-1.745 6.451H50v3.226h8.507A12.835 12.835 0 0150 75.805c-7.114.001-12.903-5.787-12.903-12.902zm8.201 15.426a16.06 16.06 0 009.404 0L50 81.855l-4.702-3.526zm2.247 5.716l-3.29 3.292-2.137-6.405 1.027-.187 4.4 3.3zm9.31-3.3l1.027.187-2.137 6.405-3.29-3.292 4.4-3.3zm-33.72 16.03l2.513-8.373a8.029 8.029 0 016.283-5.618l6.984-1.27 3.93 11.794L50 86.152l7.158 7.156 3.93-11.794 6.985 1.27a8.032 8.032 0 016.282 5.616l2.51 8.374h-53.73z" fill="#fff"/><path d="M33.871 0H4.839A4.845 4.845 0 000 4.839v19.355a4.845 4.845 0 004.839 4.838h7.527l15.587 11.692-1.67-11.692h7.588a4.845 4.845 0 004.839-4.838V4.838A4.845 4.845 0 0033.87 0zm1.613 24.194c0 .888-.723 1.612-1.613 1.612H22.563l1.097 7.663-10.22-7.663H4.84c-.89 0-1.613-.724-1.613-1.613V4.84c0-.889.722-1.613 1.613-1.613H33.87c.89 0 1.613.724 1.613 1.613v19.355z" fill="#fff"/><path d="M32.258 6.452H6.452v3.225h25.806V6.452zM25.806 19.355H6.453v3.226h19.355v-3.226z" fill="#fff"/><path d="M95.161 25.327A14.446 14.446 0 00100 14.517C100 6.512 93.489 0 85.484 0c-8.005 0-14.516 6.513-14.516 14.516 0 4.157 1.755 8.053 4.838 10.811v2.092h-3.225v3.226h3.225v6.452h19.355v-6.452h3.226V27.42h-3.226v-2.092zm-3.225 8.544H79.032v-3.226h12.904v3.226zM83.87 14.516c0-.889.723-1.613 1.613-1.613s1.613.724 1.613 1.613-.723 1.613-1.613 1.613-1.613-.724-1.613-1.613zm8.668 8.807l-.603.483v3.613h-4.84v-8.36c1.873-.669 3.227-2.443 3.227-4.543a4.845 4.845 0 00-4.84-4.839 4.845 4.845 0 00-4.838 4.84c0 2.1 1.353 3.873 3.226 4.541v8.361h-4.839v-3.613l-.603-.483a11.244 11.244 0 01-4.235-8.807c0-6.226 5.066-11.29 11.29-11.29 6.224 0 11.29 5.064 11.29 11.29 0 3.436-1.543 6.647-4.235 8.807z" fill="#FEBF01"/><path d="M32.258 12.903H6.452v3.226h25.806v-3.226zM32.258 19.355h-3.226v3.226h3.226v-3.226z" fill="#fff"/></svg>