<svg width="100" height="100" fill="none" xmlns="http://www.w3.org/2000/svg"><path d="M51.667 81.667h-3.334V85h3.334v-3.333z" fill="#fff"/><path d="M98.333 85h-1.666V25A6.667 6.667 0 0090 18.333h-6.667v-10a6.667 6.667 0 00-6.666-6.666h-40A6.667 6.667 0 0030 8.333V10h-3.333A6.667 6.667 0 0020 16.667v1.666H10A6.667 6.667 0 003.333 25v60H1.667C.747 85 0 85.746 0 86.667v5a6.667 6.667 0 006.667 6.666h86.666A6.667 6.667 0 00100 91.667v-5c0-.92-.746-1.667-1.667-1.667zm-65-76.667A3.333 3.333 0 0136.667 5h40A3.333 3.333 0 0180 8.333V35a3.333 3.333 0 01-3.333 3.333h-3.334c-.524 0-1.018.247-1.333.667l-3.667 4.888L64.667 39a1.667 1.667 0 00-1.334-.667H36.667A3.333 3.333 0 0133.333 35V8.333zm-10 8.334a3.333 3.333 0 013.334-3.334H30V35a6.667 6.667 0 006.667 6.667h21.666v1.666A3.333 3.333 0 0155 46.667H43.333c-.524 0-1.018.247-1.333.666l-3.667 4.889-3.666-4.889a1.667 1.667 0 00-1.334-.666h-6.666a3.333 3.333 0 01-3.334-3.334V16.667zM26.667 50H32.5l4.5 6a1.666 1.666 0 002.667 0l4.5-6H55a6.667 6.667 0 006.667-6.667v-1.666h.833l4.5 6a1.667 1.667 0 002.667 0l4.5-6h2.5A6.667 6.667 0 0083.333 35v-6.667h3.334V75H80v-1.667c0-2.77-1.379-5.36-3.677-6.908a6.667 6.667 0 10-9.313 0 8.333 8.333 0 00-3.677 6.908V75H36.667v-1.667c-.001-2.77-1.38-5.36-3.677-6.908a6.667 6.667 0 10-9.313 0A8.333 8.333 0 0020 73.333V75h-6.667V28.333H20v15A6.667 6.667 0 0026.667 50zm45 18.333a5 5 0 015 5V75h-10v-1.667a5 5 0 015-5zm-3.334-6.666a3.333 3.333 0 116.667 0 3.333 3.333 0 01-6.667 0zm-40 6.666a5 5 0 015 5V75h-10v-1.667a5 5 0 015-5zM25 61.667a3.333 3.333 0 116.666 0 3.333 3.333 0 01-6.666 0zM6.667 25A3.333 3.333 0 0110 21.667h10V25h-8.333c-.92 0-1.667.746-1.667 1.667v50c0 .92.746 1.666 1.667 1.666h76.666c.92 0 1.667-.746 1.667-1.666v-50c0-.92-.746-1.667-1.667-1.667h-5v-3.333H90A3.333 3.333 0 0193.333 25v60H65c-.442 0-.866.176-1.178.488l-2.845 2.845H39.023l-2.845-2.845A1.666 1.666 0 0035 85H6.667V25zm90 66.667A3.333 3.333 0 0193.333 95H6.667a3.333 3.333 0 01-3.334-3.333v-3.334H34.31l2.845 2.845c.313.313.736.489 1.178.489h23.334c.442 0 .865-.176 1.178-.489l2.845-2.845h30.977v3.334z" fill="#fff"/><path d="M75 10H48.333v3.333H75V10zM75 16.667H38.333V20H75v-3.333zM75 23.333H38.333v3.334H75v-3.334zM68.333 30h-30v3.333h30V30z" fill="#FEBF01"/><path d="M45 10h-3.333v3.333H45V10z" fill="#fff"/></svg>