<svg width="180" height="48" fill="none" xmlns="http://www.w3.org/2000/svg"><g clip-path="url(#clip0)"><path d="M2.577 39.883v6.101h-.514v-6.101h.514zM11.223 39.883v.497H8.99v5.603h-.514V40.38h-2.23v-.497h4.976zM17.063 42.698v.47h-3.06v-.47h3.06zM23.146 39.883c1.386 0 2.571.435 2.571 1.934 0 1.507-1.185 1.943-2.57 1.943h-1.492v2.223h-.514V39.88h2.004l.001.002zm.027.496h-1.507v2.885h1.507c1.099 0 2.022-.296 2.022-1.447 0-1.15-.916-1.437-2.023-1.437h.001zM33.622 39.883v.496h-3.538v2.284h3.277v.497h-3.277v2.326h3.6v.497H29.57v-6.101h4.053zM37.668 45.983v-6.1h.514v5.603h3.007v-5.603h.513v5.603h3.007v-5.603h.515v6.1h-7.556zM53.669 39.883v.496h-3.538v2.284h3.277v.497H50.13v2.326h3.599v.497h-4.113v-6.101h4.053-.001zM62.7 39.883v6.1h-.515V43.17H58.23v2.815h-.514v-6.102h.514v2.79h3.956v-2.79h.514zM71.56 45.983v-5.23l-4 5.23h-.47v-6.1h.514v5.22l4-5.22h.471v6.1h-.514zM75.91 45.984l1.84-2.362c-.916-.2-1.596-.793-1.596-1.84 0-1.298 1.073-1.9 2.31-1.9h2.257v6.102h-.514v-2.292h-1.883l-1.787 2.292h-.626zm2.528-2.79h1.76V40.38h-1.76c-.976 0-1.752.444-1.752 1.403 0 .967.777 1.412 1.752 1.412zM89.367 47.465v-1.979h.688c.811-1.455 1.063-3.66 1.063-5.604h3.66v5.604h.758v1.979h-.497v-1.482h-5.175v1.482h-.497zm1.273-1.979h3.626V40.38H91.65c-.061 1.779-.323 3.8-1.011 5.107zM104.126 39.883v6.1h-.514V40.38h-2.587c-.245 2.902-.488 5.682-2.014 5.69a1.488 1.488 0 01-.488-.086v-.498c.13.051.27.075.409.07 1.168 0 1.377-2.815 1.595-5.674h3.599zM107.961 45.983l1.839-2.361c-.915-.201-1.595-.794-1.595-1.84 0-1.298 1.072-1.9 2.31-1.9h2.257v6.102h-.514V43.69h-1.883l-1.787 2.292h-.627zm2.527-2.789h1.761V40.38h-1.761c-.976 0-1.752.445-1.752 1.403 0 .968.776 1.412 1.752 1.412zM124.293 42.427c1.194 0 2.406.297 2.406 1.778 0 1.482-1.212 1.778-2.406 1.778h-2.188v-6.101h4.132v.497h-3.617v2.048h1.673zm.027 3.06c.959 0 1.857-.149 1.857-1.281s-.907-1.28-1.857-1.28h-1.69v2.56h1.69zM135.05 45.983v-5.23l-4 5.23h-.472v-6.1h.514v5.22l4.001-5.22h.471v6.1h-.514zM141.596 46.08a5.462 5.462 0 01-2.135-.376v-.522c.66.293 1.378.432 2.1.408.889 0 1.883-.296 1.883-1.299 0-.976-.976-1.237-1.848-1.237h-1.202v-.488h1.15c.985 0 1.647-.409 1.647-1.133 0-.828-.749-1.16-1.725-1.16a4.192 4.192 0 00-1.9.42v-.524c.609-.27 1.269-.4 1.934-.383 1.238 0 2.214.514 2.214 1.586 0 .767-.514 1.255-1.211 1.42.68.105 1.464.532 1.464 1.553 0 1.29-1.264 1.734-2.371 1.734zM152.934 39.883v6.1h-.512V43.17h-3.959v2.815h-.514v-6.102h.514v2.79h3.959v-2.79h.514-.002zM161.38 39.883v.496h-3.539v2.284h3.277v.497h-3.277v2.326h3.6v.497h-4.113v-6.101h4.053-.001zM168.084 39.787a3.61 3.61 0 011.708.408v.523a3.06 3.06 0 00-1.629-.444c-1.335 0-2.728.862-2.728 2.719-.009 1.76 1.42 2.597 2.753 2.597a3.059 3.059 0 001.665-.445v.515a3.711 3.711 0 01-1.77.418c-1.526 0-3.182-1.037-3.173-3.085.001-2.125 1.614-3.206 3.174-3.206zM173.023 45.983l2.72-6.1h.584l2.71 6.1h-.558l-.723-1.638h-3.442l-.732 1.639h-.559zm1.491-2.126h3.033l-1.438-3.251a4.87 4.87 0 00-.078-.19 2.912 2.912 0 00-.079.19l-1.438 3.25z" fill="#000"/><path fill-rule="evenodd" clip-rule="evenodd" d="M169.922.545H180v10.078h-10.078V.545z" fill="#FEBF01"/><path d="M29.215 15.55v16.634A28.86 28.86 0 0118.284 34.4C8.907 34.4 0 29.17 0 17.2 0 4.901 9 0 18.19 0c3.51.01 6.986.714 10.224 2.073v8.247c-2.451-1.697-5.795-2.64-9.094-2.64-5.325 0-10.367 2.734-10.367 9.52 0 8.151 5.984 9.707 9.754 9.707.76.012 1.52-.067 2.261-.236v-11.12h8.247zm28.65 18.143l-1.886-5.184H42.315l-1.885 5.184h-8.953L44.434.708h9.425l12.958 32.985h-8.953zm-7.87-21.771a16.55 16.55 0 01-.848-3.346 16.473 16.473 0 01-.849 3.346l-3.392 9.519h8.482l-3.393-9.52zm41.09 9.801l9.094 11.97H90.33l-7.869-10.745h-3.77v10.745h-8.718V.707h13.9c6.691 0 13.524 2.403 13.524 11.12 0 5.467-2.686 8.435-6.314 9.896h.001zM84.251 8.246h-5.56v7.633h5.56c2.497 0 4.194-1.272 4.194-3.816 0-2.545-1.696-3.817-4.194-3.817zm32.276 15.08h-4.334v10.367h-8.718V.707h13.053c8.152 0 14.372 2.639 14.372 11.309s-6.22 11.262-14.372 11.31h-.001zm.424-15.08h-4.758v7.54h4.759c2.639 0 4.995-.801 4.995-3.77s-2.356-3.77-4.995-3.77h-.001zm18.001 25.447V.707h8.718v32.986h-8.718zm34.869 0l-6.691-11.074-6.692 11.074h-10.178L157.57 16.54 146.968.707h11.54l10.183 15.833L180 33.693h-10.178z" fill="#000"/></g><defs><clipPath id="clip0"><path fill="#000" d="M0 0h180v47.465H0z"/></clipPath></defs></svg>